<svg fill="none" height="60" viewBox="0 0 139 60" width="139" xmlns="http://www.w3.org/2000/svg"><path d="m48.0098 11.8438v35.1562h-6.2012v-35.1562zm17.334 9.8632c1.3346 0 2.6855.3093 4.0527.9278s2.5065 1.4485 3.418 2.4902v-2.7832h6.2011v24.6582h-6.2011v-4.1504c-.7162 1.3346-1.7579 2.4902-3.125 3.4668-1.3672.944-2.9623 1.416-4.7852 1.416-1.9857 0-3.8249-.5045-5.5176-1.5136-1.6601-1.0092-2.9948-2.474-4.0039-4.3946s-1.5137-4.248-1.5137-6.9824.5046-5.0781 1.5137-7.0313c1.0417-1.9531 2.4251-3.4505 4.1504-4.4921 1.7578-1.0743 3.6947-1.6114 5.8106-1.6114zm1.2695 6.0547c-1.3021 0-2.4251.3418-3.3692 1.0254-.9114.6511-1.6276 1.5137-2.1484 2.5879s-.7812 2.2298-.7812 3.4668c0 1.8555.5533 3.4342 1.6601 4.7363 1.1393 1.3021 2.6367 1.9531 4.4922 1.9531 1.1068 0 2.1322-.2929 3.0762-.8789.9765-.5859 1.7578-1.3997 2.3437-2.4414.6185-1.0742.9278-2.36.9278-3.8574v-3.5156c-.879-.944-1.8392-1.6927-2.8809-2.2461-1.0091-.5534-2.1159-.8301-3.3203-.8301zm40.4787-5.4199v1.5137l-12.7443 17.8222h13.2323v5.3223h-22.1679v-1.5625l12.207-17.8223h-11.4746v-5.2734zm17.529-.6348c2.409 0 4.476.5209 6.201 1.5625 1.758 1.0417 3.093 2.4903 4.004 4.3457.944 1.823 1.416 3.9388 1.416 6.3477v2.6367h-17.871c.326 1.6602 1.139 2.9948 2.441 4.0039 1.303 1.0091 2.898 1.5137 4.786 1.5137 1.79 0 3.418-.3581 4.882-1.0742 1.465-.7162 2.637-1.4486 3.516-2.1973l-.049 5.7617c-.781.6836-1.953 1.3835-3.515 2.0996-1.53.6836-3.223 1.0254-5.078 1.0254-2.442 0-4.672-.5534-6.69-1.6601-1.986-1.1068-3.581-2.6205-4.785-4.5411-1.172-1.9205-1.758-4.1178-1.758-6.5917 0-2.4089.537-4.6062 1.611-6.5918 1.075-1.9857 2.556-3.5808 4.444-4.7852 1.888-1.237 4.036-1.8555 6.445-1.8555zm-.146 5.42c-1.53 0-2.816.472-3.858 1.416-1.041.944-1.758 2.2135-2.148 3.8086h11.816c-.13-1.7578-.781-3.0599-1.953-3.9063-1.172-.8789-2.458-1.3183-3.857-1.3183z" fill="#fff"/><path d="m16.8036 30.8698c22.9257 4.1875 12.3726 28.3457-4.3667 20.6151-16.73943-7.7307-6.18635-32.5331 10.9169-43.4849" stroke="#fb7370" stroke-linecap="round" stroke-linejoin="round" stroke-width="8"/></svg>