<svg xmlns="http://www.w3.org/2000/svg" version="1.1" xmlns:xlink="http://www.w3.org/1999/xlink" xmlns:svgjs="http://svgjs.com/svgjs" width="1440" height="560" preserveAspectRatio="none" viewBox="0 0 1440 560"><g mask="url(&quot;#SvgjsMask1002&quot;)" fill="none"><path d="M0 456.89L10 432.69L20 495.93L30 542.53L40 542.41L50 499.43L60 438.79L70 411.07L80 480.93L90 520.15L100 541.65L110 549.31L120 547.93L130 499.26L140 488.04L150 426.84L160 469.36L170 419.54L180 459.35L190 501.62L200 538.06L210 527.69L220 537.47L230 501.67L240 520.99L250 473.31L260 530.54L270 466.93L280 477.77L290 413.45L300 466.69L310 458.98L320 518.02L330 506.94L340 509.09L350 444.76L360 377.6L370 325.82L380 389.62L390 434.08L400 440.37L410 452L420 509.66L430 442.7L440 473.34L450 479.45L460 470.76L470 423.3L480 429.88L490 390.23L500 344.2L510 359.08L520 369.25L530 395.26L540 449.68L550 445.95L560 472.52L570 451.58L580 454.71L590 430.46L600 489L610 547.37L620 533.91L630 522.01L640 490.48L650 501.92L660 463.33L670 496.06L680 477.73L690 522.33L700 470.11L710 531.43L720 495.76L730 522.2L740 483.9L750 466.92L760 454.57L770 486.24L780 483.08L790 433.91L800 413.97L810 438.52L820 435.33L830 420.47L840 435.01L850 417.79L860 352.21L870 368.68L880 412.65L890 438.78L900 378.14L910 425.79L920 440.75L930 438.89L940 414.07L950 366.94L960 326.24L970 287.45L980 313.89L990 339.27L1000 322.16L1010 259.93L1020 296.47L1030 244.82L1040 191.36L1050 258.18L1060 234.89L1070 248.41L1080 200.71L1090 256.66L1100 321.88L1110 283.69L1120 330.42L1130 355.46L1140 349.04L1150 309.03L1160 369.2L1170 321.3L1180 334.43L1190 350.72L1200 408.62L1210 457.1L1220 498.71L1230 486.78L1240 512.34L1250 458.03L1260 397.51L1270 360.32L1280 419.36L1290 385.98L1300 358.67L1310 296.65L1320 272.21L1330 231.71L1340 184.82L1350 160.8L1360 103.99L1370 80.67L1380 102.06L1390 156.7L1400 207.96L1410 201.59L1420 177.48L1430 227.56L1440 283.75" stroke="#224b75" stroke-width="2"></path><path d="M0 456.89L10 432.69L20 495.93L30 542.53L40 542.41L50 499.43L60 438.79L70 411.07L80 480.93L90 520.15L100 541.65L110 549.31L120 547.93L130 499.26L140 488.04L150 426.84L160 469.36L170 419.54L180 459.35L190 501.62L200 538.06L210 527.69L220 537.47L230 501.67L240 520.99L250 473.31L260 530.54L270 466.93L280 477.77L290 413.45L300 466.69L310 458.98L320 518.02L330 506.94L340 509.09L350 444.76L360 377.6L370 325.82L380 389.62L390 434.08L400 440.37L410 452L420 509.66L430 442.7L440 473.34L450 479.45L460 470.76L470 423.3L480 429.88L490 390.23L500 344.2L510 359.08L520 369.25L530 395.26L540 449.68L550 445.95L560 472.52L570 451.58L580 454.71L590 430.46L600 489L610 547.37L620 533.91L630 522.01L640 490.48L650 501.92L660 463.33L670 496.06L680 477.73L690 522.33L700 470.11L710 531.43L720 495.76L730 522.2L740 483.9L750 466.92L760 454.57L770 486.24L780 483.08L790 433.91L800 413.97L810 438.52L820 435.33L830 420.47L840 435.01L850 417.79L860 352.21L870 368.68L880 412.65L890 438.78L900 378.14L910 425.79L920 440.75L930 438.89L940 414.07L950 366.94L960 326.24L970 287.45L980 313.89L990 339.27L1000 322.16L1010 259.93L1020 296.47L1030 244.82L1040 191.36L1050 258.18L1060 234.89L1070 248.41L1080 200.71L1090 256.66L1100 321.88L1110 283.69L1120 330.42L1130 355.46L1140 349.04L1150 309.03L1160 369.2L1170 321.3L1180 334.43L1190 350.72L1200 408.62L1210 457.1L1220 498.71L1230 486.78L1240 512.34L1250 458.03L1260 397.51L1270 360.32L1280 419.36L1290 385.98L1300 358.67L1310 296.65L1320 272.21L1330 231.71L1340 184.82L1350 160.8L1360 103.99L1370 80.67L1380 102.06L1390 156.7L1400 207.96L1410 201.59L1420 177.48L1430 227.56L1440 283.75L1440 560L0 560z" fill="url(#SvgjsLinearGradient1003)"></path></g><defs><mask id="SvgjsMask1002"><rect width="1440" height="560" fill="#ffffff"></rect></mask><linearGradient x1="50%" y1="0%" x2="50%" y2="100%" id="SvgjsLinearGradient1003"><stop stop-opacity="0.65" stop-color="#224b75" offset="0"></stop><stop stop-opacity="0" stop-color="#508dcc" offset="0.8"></stop></linearGradient></defs></svg>