<svg xmlns="http://www.w3.org/2000/svg" version="1.1" xmlns:xlink="http://www.w3.org/1999/xlink" xmlns:svgjs="http://svgjs.com/svgjs" width="1440" height="560" preserveAspectRatio="none" viewBox="0 0 1440 560"><g mask="url(&quot;#SvgjsMask1000&quot;)" fill="none"><path d="M0 281.68L10 307.36L20 281.29L30 288.02L40 263.93L50 291.16L60 346L70 374.05L80 395.27L90 358.96L100 361.4L110 414.01L120 472.81L130 493.32L140 548.45L150 495.01L160 448.94L170 470.41L180 488.64L190 444.45L200 415.11L210 435.36L220 473.78L230 469.51L240 462.88L250 427.32L260 480.43L270 420.57L280 478.18L290 487.03L300 500.48L310 472.6L320 460.61L330 501.01L340 433.46L350 495.48L360 454.62L370 432.99L380 472.93L390 532.17L400 464.23L410 481.37L420 522.84L430 501.76L440 449.66L450 518.34L460 490.97L470 451.42L480 439.19L490 380.7L500 434.54L510 400.84L520 393.18L530 327.57L540 309.49L550 240.34L560 292.83L570 341.51L580 315.04L590 258.93L600 310.9L610 345.51L620 294.85L630 237.79L640 288.16L650 254.98L660 185L670 163.18L680 230.84L690 237.15L700 306.74L710 248.73L720 316.89L730 363.66L740 307.47L750 337.69L760 300.08L770 245L780 310.32L790 294.77L800 267.87L810 324.58L820 281.76L830 307.63L840 283.35L850 300.28L860 269.68L870 208.53L880 274.52L890 230.56L900 214.67L910 159.64L920 182.18L930 187.71L940 193.23L950 145.52L960 138.05L970 176.4L980 178.45L990 150L1000 144.72L1010 212.32L1020 240.31L1030 241.33L1040 186.12L1050 172.62L1060 144.06L1070 156.18L1080 88.71L1090 75.62L1100 115.73L1110 166.48L1120 129.47L1130 86.98L1140 156.81L1150 96.14L1160 107.95L1170 101.3L1180 143.2L1190 136.41L1200 158.21L1210 181.89L1220 187.87L1230 169.89L1240 112.49L1250 131.64L1260 187.89L1270 217.01L1280 173.13L1290 187.45L1300 256.83L1310 198.02L1320 218.07L1330 226.99L1340 240.24L1350 294.25L1360 248.95L1370 274L1380 304.13L1390 322.27L1400 379.84L1410 342.14L1420 284.27L1430 238.33L1440 242.82" stroke="#224b75" stroke-width="2"></path><path d="M0 281.68L10 307.36L20 281.29L30 288.02L40 263.93L50 291.16L60 346L70 374.05L80 395.27L90 358.96L100 361.4L110 414.01L120 472.81L130 493.32L140 548.45L150 495.01L160 448.94L170 470.41L180 488.64L190 444.45L200 415.11L210 435.36L220 473.78L230 469.51L240 462.88L250 427.32L260 480.43L270 420.57L280 478.18L290 487.03L300 500.48L310 472.6L320 460.61L330 501.01L340 433.46L350 495.48L360 454.62L370 432.99L380 472.93L390 532.17L400 464.23L410 481.37L420 522.84L430 501.76L440 449.66L450 518.34L460 490.97L470 451.42L480 439.19L490 380.7L500 434.54L510 400.84L520 393.18L530 327.57L540 309.49L550 240.34L560 292.83L570 341.51L580 315.04L590 258.93L600 310.9L610 345.51L620 294.85L630 237.79L640 288.16L650 254.98L660 185L670 163.18L680 230.84L690 237.15L700 306.74L710 248.73L720 316.89L730 363.66L740 307.47L750 337.69L760 300.08L770 245L780 310.32L790 294.77L800 267.87L810 324.58L820 281.76L830 307.63L840 283.35L850 300.28L860 269.68L870 208.53L880 274.52L890 230.56L900 214.67L910 159.64L920 182.18L930 187.71L940 193.23L950 145.52L960 138.05L970 176.4L980 178.45L990 150L1000 144.72L1010 212.32L1020 240.31L1030 241.33L1040 186.12L1050 172.62L1060 144.06L1070 156.18L1080 88.71L1090 75.62L1100 115.73L1110 166.48L1120 129.47L1130 86.98L1140 156.81L1150 96.14L1160 107.95L1170 101.3L1180 143.2L1190 136.41L1200 158.21L1210 181.89L1220 187.87L1230 169.89L1240 112.49L1250 131.64L1260 187.89L1270 217.01L1280 173.13L1290 187.45L1300 256.83L1310 198.02L1320 218.07L1330 226.99L1340 240.24L1350 294.25L1360 248.95L1370 274L1380 304.13L1390 322.27L1400 379.84L1410 342.14L1420 284.27L1430 238.33L1440 242.82L1440 560L0 560z" fill="url(#SvgjsLinearGradient1001)"></path></g><defs><mask id="SvgjsMask1000"><rect width="1440" height="560" fill="#ffffff"></rect></mask><linearGradient x1="50%" y1="0%" x2="50%" y2="100%" id="SvgjsLinearGradient1001"><stop stop-opacity="0.65" stop-color="#224b75" offset="0"></stop><stop stop-opacity="0" stop-color="#508dcc" offset="0.8"></stop></linearGradient></defs></svg>