<svg xmlns="http://www.w3.org/2000/svg" version="1.1" xmlns:xlink="http://www.w3.org/1999/xlink" xmlns:svgjs="http://svgjs.com/svgjs" width="1440" height="560" preserveAspectRatio="none" viewBox="0 0 1440 560"><g mask="url(&quot;#SvgjsMask1036&quot;)" fill="none"><path d="M0 307.89L10 324.16L20 327.1L30 336.48L40 375.9L50 312.93L60 307.44L70 283.83L80 214.51L90 227.69L100 259.64L110 253.58L120 265.85L130 334.04L140 359.96L150 356.74L160 334.44L170 356.21L180 315.97L190 354.83L200 414.86L210 415.2L220 383.62L230 411.72L240 465.28L250 508.63L260 458.94L270 424.24L280 461L290 465.93L300 459.47L310 396.49L320 461.21L330 509.28L340 552.98L350 526.87L360 471.88L370 513.65L380 550.26L390 500.9L400 488.76L410 510.4L420 532.17L430 479.13L440 497.74L450 545.25L460 554.23L470 521.09L480 504.71L490 479.99L500 464.64L510 513.88L520 516.59L530 502.05L540 540.87L550 540.9L560 525.46L570 457.83L580 465.46L590 526.66L600 534.17L610 546.94L620 524.27L630 548.6L640 514.32L650 515.59L660 497.26L670 438.13L680 439.84L690 397.56L700 430.61L710 374.95L720 358.55L730 343.62L740 313.31L750 245.73L760 270.52L770 214.13L780 240.87L790 247.07L800 304.83L810 343.73L820 318.25L830 375.23L840 343.98L850 293.85L860 251.71L870 281.56L880 243.94L890 174.09L900 162.07L910 117.74L920 167.18L930 142.8L940 183.94L950 176.21L960 220.45L970 169.62L980 157.02L990 119.33L1000 56.93L1010 117.68L1020 60.05L1030 90.68L1040 54.09L1050 4.97L1060 14.05L1070 63.73L1080 19.73L1090 21.13L1100 83.93L1110 118.87L1120 129.53L1130 112.02L1140 136.44L1150 85.9L1160 104.82L1170 106.46L1180 79.12L1190 34.87L1200 89.61L1210 151.68L1220 182.68L1230 237.46L1240 168.04L1250 104.15L1260 117.9L1270 98.26L1280 93.65L1290 138.58L1300 97.52L1310 37.29L1320 88.23L1330 135.97L1340 135.1L1350 122.67L1360 143.74L1370 148.35L1380 191.79L1390 211.56L1400 214L1410 247.08L1420 201.27L1430 202.51L1440 221" stroke="rgba(0, 188, 221, 1)" stroke-width="2"></path><path d="M0 307.89L10 324.16L20 327.1L30 336.48L40 375.9L50 312.93L60 307.44L70 283.83L80 214.51L90 227.69L100 259.64L110 253.58L120 265.85L130 334.04L140 359.96L150 356.74L160 334.44L170 356.21L180 315.97L190 354.83L200 414.86L210 415.2L220 383.62L230 411.72L240 465.28L250 508.63L260 458.94L270 424.24L280 461L290 465.93L300 459.47L310 396.49L320 461.21L330 509.28L340 552.98L350 526.87L360 471.88L370 513.65L380 550.26L390 500.9L400 488.76L410 510.4L420 532.17L430 479.13L440 497.74L450 545.25L460 554.23L470 521.09L480 504.71L490 479.99L500 464.64L510 513.88L520 516.59L530 502.05L540 540.87L550 540.9L560 525.46L570 457.83L580 465.46L590 526.66L600 534.17L610 546.94L620 524.27L630 548.6L640 514.32L650 515.59L660 497.26L670 438.13L680 439.84L690 397.56L700 430.61L710 374.95L720 358.55L730 343.62L740 313.31L750 245.73L760 270.52L770 214.13L780 240.87L790 247.07L800 304.83L810 343.73L820 318.25L830 375.23L840 343.98L850 293.85L860 251.71L870 281.56L880 243.94L890 174.09L900 162.07L910 117.74L920 167.18L930 142.8L940 183.94L950 176.21L960 220.45L970 169.62L980 157.02L990 119.33L1000 56.93L1010 117.68L1020 60.05L1030 90.68L1040 54.09L1050 4.97L1060 14.05L1070 63.73L1080 19.73L1090 21.13L1100 83.93L1110 118.87L1120 129.53L1130 112.02L1140 136.44L1150 85.9L1160 104.82L1170 106.46L1180 79.12L1190 34.87L1200 89.61L1210 151.68L1220 182.68L1230 237.46L1240 168.04L1250 104.15L1260 117.9L1270 98.26L1280 93.65L1290 138.58L1300 97.52L1310 37.29L1320 88.23L1330 135.97L1340 135.1L1350 122.67L1360 143.74L1370 148.35L1380 191.79L1390 211.56L1400 214L1410 247.08L1420 201.27L1430 202.51L1440 221L1440 560L0 560z" fill="url(#SvgjsLinearGradient1037)"></path></g><defs><mask id="SvgjsMask1036"><rect width="1440" height="560" fill="#ffffff"></rect></mask><linearGradient x1="50%" y1="0%" x2="50%" y2="100%" id="SvgjsLinearGradient1037"><stop stop-opacity="0.65" stop-color="rgba(0, 188, 221, 1)" offset="0"></stop><stop stop-opacity="0" stop-color="#a1f1ff" offset="0.8"></stop></linearGradient></defs></svg>