<svg width="32" height="32" viewBox="0 0 32 32" fill="none" xmlns="http://www.w3.org/2000/svg">
<path d="M17.1489 16L28.762 4.38696C29.0793 4.06958 29.0793 3.55542 28.762 3.23804C28.4446 2.92065 27.9304 2.92065 27.613 3.23804L16 14.8511L4.38696 3.23804C4.06958 2.92065 3.55542 2.92065 3.23804 3.23804C2.92065 3.55542 2.92065 4.06958 3.23804 4.38696L14.8511 16L3.23804 27.613C2.92065 27.9304 2.92065 28.4446 3.23804 28.762C3.39673 28.9207 3.60409 29 3.8125 29C4.02091 29 4.22827 28.9207 4.38696 28.762L16 17.1489L27.613 28.762C27.7717 28.9207 27.9791 29 28.1875 29C28.3959 29 28.6033 28.9207 28.762 28.762C29.0793 28.4446 29.0793 27.9304 28.762 27.613L17.1489 16Z" fill="#00BCDD" stroke="#00BCDD"/>
</svg>
