<svg width="17" height="17" viewBox="0 0 17 17" fill="none" xmlns="http://www.w3.org/2000/svg">
<path d="M9.25122 8.5L16.8444 0.90686C17.0519 0.699341 17.0519 0.363159 16.8444 0.15564C16.6368 -0.0518799 16.3007 -0.0518799 16.0931 0.15564L8.5 7.74878L0.90686 0.15564C0.699341 -0.0518798 0.363159 -0.0518798 0.15564 0.15564C-0.0518799 0.363159 -0.0518799 0.699341 0.15564 0.90686L7.74878 8.5L0.15564 16.0931C-0.0518798 16.3007 -0.0518798 16.6368 0.15564 16.8444C0.259399 16.9481 0.394979 17 0.53125 17C0.667521 17 0.803101 16.9481 0.90686 16.8444L8.5 9.25122L16.0931 16.8444C16.1969 16.9481 16.3325 17 16.4687 17C16.605 17 16.7406 16.9481 16.8444 16.8444C17.0519 16.6368 17.0519 16.3007 16.8444 16.0931L9.25122 8.5Z" fill="#556370"/>
</svg>
