<svg width="17" height="21" viewBox="0 0 17 21" fill="none" xmlns="http://www.w3.org/2000/svg">
<path d="M3.95312 6.00335H12.9833C12.9033 5.06606 12.527 4.35372 11.6711 4.12408C11.6523 4.11939 11.6287 4.11002 11.6099 4.10533C11.0455 3.94599 10.6317 3.75385 10.6317 3.13524V2.16983C10.6317 0.974782 9.66751 0 8.46819 0C7.26888 0 6.30472 0.970096 6.30472 2.16983V3.13524C6.30472 3.74916 5.89084 3.94131 5.32646 4.10065C5.30764 4.10533 5.28413 4.11939 5.26061 4.12408C4.40463 4.35372 4.04249 5.06606 3.95312 6.00335ZM8.46819 1.5231C8.82563 1.5231 9.11723 1.81366 9.11723 2.16983C9.11723 2.53069 8.82563 2.81656 8.46819 2.81656C8.11075 2.81656 7.81915 2.526 7.81915 2.16983C7.81915 1.81366 8.11075 1.5231 8.46819 1.5231Z" fill="#232425"/>
<path d="M15.457 1.45752H11.9954V2.13706C11.9954 2.63382 12.4046 3.00405 12.8891 3.00405H14.6386C14.9538 3.00405 15.2077 3.27118 15.2218 3.58986L15.2265 18.9239C15.2124 19.2239 14.9773 19.4676 14.6857 19.491L2.25043 19.4957C1.95883 19.4722 1.72837 19.2286 1.70956 18.9286L1.70486 3.58986C1.71897 3.27118 1.98235 3.00405 2.29276 3.00405H4.04705C4.53148 3.00405 4.94066 2.63382 4.94066 2.13706V1.45752H1.4791C0.768923 1.45752 0.19043 2.07144 0.19043 2.79785V19.6878C0.19043 20.4142 0.768923 21 1.4791 21H8.46805H15.457C16.1672 21 16.7457 20.4142 16.7457 19.6878V2.79785C16.7457 2.07144 16.1672 1.45752 15.457 1.45752Z" fill="#232425"/>
<path d="M8.46777 7.50293H3.2002V8.25276H8.46777V7.50293Z" fill="#232425"/>
<path d="M10.7253 12.002H3.2002V12.7518H10.7253V12.002Z" fill="#232425"/>
<path d="M9.26732 16.501H3.2002V17.2508H9.26732V16.501Z" fill="#232425"/>
<path d="M11.4778 14.2515H3.2002V15.0013H11.4778V14.2515Z" fill="#232425"/>
<path d="M12.9828 9.75244H3.2002V10.5023H12.9828V9.75244Z" fill="#232425"/>
</svg>
