<svg width="39" height="39" viewBox="0 0 39 39" fill="none" xmlns="http://www.w3.org/2000/svg">
<path d="M14.5721 33.1301C7.03594 30.2289 2.98614 21.6172 5.54307 13.9345C6.61619 10.7101 8.76981 7.99149 11.6062 6.27892C12.0883 5.98849 12.7264 6.1623 13.0257 6.67269C13.3249 7.18308 13.1775 7.83135 12.6921 8.12501C10.2613 9.59179 8.41555 11.9215 7.49545 14.6861C5.3035 21.2721 8.77411 28.6527 15.2345 31.1397C21.6949 33.6267 28.732 30.2912 30.9239 23.7051C33.1159 17.119 29.6453 9.73847 23.1849 7.25147C20.9553 6.39315 18.5722 6.20103 16.2906 6.69685C15.7363 6.81356 15.1801 6.44672 15.0454 5.87174C14.9108 5.29675 15.2483 4.73284 15.8012 4.61338C18.4648 4.03555 21.2467 4.26 23.8473 5.26111C31.3835 8.16224 35.4333 16.7739 32.8763 24.4567C30.3194 32.1395 22.1083 36.0312 14.5721 33.1301Z" fill="#BEC8D4"/>
<path d="M17.6031 27.4657L11.6719 25.1221C11.1262 24.9065 10.8255 24.2932 11.0007 23.7532C11.1758 23.2132 11.7609 22.9499 12.3065 23.1655L18.2378 25.5092C19.8728 26.1552 21.6305 25.3642 22.1553 23.7462C22.6801 22.1281 21.7766 20.2856 20.1416 19.6395L16.1874 18.0771L16.8221 16.1206L20.7762 17.683C23.5006 18.7595 25.0069 21.8313 24.1324 24.5274C23.2579 27.2235 20.3275 28.5422 17.6031 27.4657Z" fill="#BEC8D4"/>
<path d="M19.2693 19.1449L16.3049 17.9736L16.9393 16.018L19.9037 17.1893C20.9926 17.6195 22.1642 17.094 22.5144 16.0145C22.8645 14.935 22.2614 13.7083 21.1724 13.2781L16.2317 11.326C15.6863 11.1105 15.3857 10.4975 15.5607 9.95778C15.7358 9.41803 16.3206 9.15489 16.8661 9.3704L21.8068 11.3225C23.9867 12.1838 25.1904 14.6383 24.4907 16.7954C23.791 18.9524 21.4492 20.0061 19.2693 19.1449Z" fill="#BEC8D4"/>
<path d="M14.9192 28.7525C14.37 28.5354 14.0675 27.9183 14.2439 27.3751L14.8833 25.4067L16.8733 26.1933L16.2339 28.1616C16.0574 28.7049 15.4685 28.9696 14.9192 28.7525Z" fill="#BEC8D4"/>
<path d="M19.5654 11.4491L20.206 9.48123C20.3829 8.93811 20.972 8.67384 21.5211 8.89135C22.0702 9.10885 22.3723 9.72617 22.1955 10.2693L21.5548 12.2371L19.5654 11.4491Z" fill="#BEC8D4"/>
<path d="M19.9005 10.5269L17.8667 9.73315L12.635 25.6137L14.6688 26.4075L19.9005 10.5269Z" fill="#BEC8D4"/>
</svg>
