<svg width="30" height="27" viewBox="0 0 30 27" fill="none" xmlns="http://www.w3.org/2000/svg">
<path d="M2.72723 4.39758C3.10379 4.39758 3.40905 4.06942 3.40905 3.66461C3.40905 3.2598 3.10379 2.93164 2.72723 2.93164C2.35067 2.93164 2.04541 3.2598 2.04541 3.66461C2.04541 4.06942 2.35067 4.39758 2.72723 4.39758Z" fill="#BEC8D4"/>
<path d="M6.81829 2.93164C7.19485 2.93164 7.50011 2.60351 7.50011 2.19873C7.50011 1.79396 7.19485 1.46582 6.81829 1.46582C6.44173 1.46582 6.13647 1.79396 6.13647 2.19873C6.13647 2.60351 6.44173 2.93164 6.81829 2.93164Z" fill="#BEC8D4"/>
<path d="M4.091 8.06213C4.46756 8.06213 4.77282 7.73397 4.77282 7.32916C4.77282 6.92435 4.46756 6.59619 4.091 6.59619C3.71444 6.59619 3.40918 6.92435 3.40918 7.32916C3.40918 7.73397 3.71444 8.06213 4.091 8.06213Z" fill="#BEC8D4"/>
<path d="M27.2726 21.9884C27.6492 21.9884 27.9545 21.6602 27.9545 21.2554C27.9545 20.8506 27.6492 20.5225 27.2726 20.5225C26.8961 20.5225 26.5908 20.8506 26.5908 21.2554C26.5908 21.6602 26.8961 21.9884 27.2726 21.9884Z" fill="#BEC8D4"/>
<path d="M2.72723 16.1246C3.10379 16.1246 3.40905 15.7965 3.40905 15.3917C3.40905 14.9869 3.10379 14.6587 2.72723 14.6587C2.35067 14.6587 2.04541 14.9869 2.04541 15.3917C2.04541 15.7965 2.35067 16.1246 2.72723 16.1246Z" fill="#BEC8D4"/>
<path d="M25.2272 12.46H19.7726C19.3956 12.46 19.0908 12.1324 19.0908 11.7271C19.0908 11.3218 19.3956 10.9941 19.7726 10.9941H25.2272C25.6042 10.9941 25.909 11.3218 25.909 11.7271C25.909 12.1324 25.6042 12.46 25.2272 12.46Z" fill="#BEC8D4"/>
<path d="M17.0455 12.46H15.6818C15.3048 12.46 15 12.1324 15 11.7271C15 11.3218 15.3048 10.9941 15.6818 10.9941H17.0455C17.4225 10.9941 17.7273 11.3218 17.7273 11.7271C17.7273 12.1324 17.4225 12.46 17.0455 12.46Z" fill="#BEC8D4"/>
<path d="M26.9317 2.93171C26.6208 2.93171 26.3099 2.98521 26.0099 3.09002C25.3867 2.08442 24.3374 1.46582 23.1817 1.46582C21.7328 1.46582 20.4885 2.44503 20.0017 3.83543C19.7113 3.72329 19.4038 3.66465 19.0908 3.66465C17.5867 3.66465 16.3635 4.97955 16.3635 6.59642C16.3635 8.2133 17.5867 9.5282 19.0908 9.5282H26.9317C28.6233 9.5282 29.9999 8.04839 29.9999 6.22995C29.9999 4.41152 28.6233 2.93171 26.9317 2.93171ZM26.9317 8.06231H26.2117C26.4463 7.62914 26.5908 7.13294 26.5908 6.59642C26.5908 6.19111 26.286 5.86348 25.909 5.86348C25.5319 5.86348 25.2272 6.19111 25.2272 6.59642C25.2272 7.40486 24.6156 8.06231 23.8635 8.06231H19.0908C18.3388 8.06231 17.7272 7.40486 17.7272 6.59642C17.7272 5.78799 18.3388 5.13054 19.0908 5.13054C19.4263 5.13054 19.7522 5.26906 20.0078 5.52046C20.2015 5.71323 20.4831 5.766 20.7272 5.65899C20.9713 5.55125 21.1363 5.30205 21.1499 5.01766C21.2058 3.84862 22.0976 2.93171 23.1817 2.93171C24.019 2.93171 24.7615 3.47335 25.0758 4.31184C25.1501 4.51047 25.3022 4.66365 25.491 4.73255C25.6792 4.79998 25.8885 4.77799 26.0583 4.66585C26.3358 4.48775 26.6297 4.39759 26.9317 4.39759C27.8719 4.39759 28.6363 5.21922 28.6363 6.22995C28.6363 7.24068 27.8719 8.06231 26.9317 8.06231Z" fill="#BEC8D4"/>
<path d="M27.5523 13.6729C27.2714 13.5358 26.9366 13.6216 26.7423 13.881C25.1502 16.0022 22.7884 17.2182 20.263 17.2182C15.6723 17.2182 11.9373 13.2031 11.9373 8.26808C11.9373 5.55322 13.0684 3.01426 15.0416 1.30281C15.283 1.09319 15.3627 0.735507 15.2352 0.432063C15.107 0.12862 14.807 -0.0443571 14.5002 0.00988158C8.86364 1.02869 4.77273 6.22753 4.77273 12.3712C4.77273 13.862 5.02841 15.2861 5.47432 16.6135C4.05 17.3347 3.0075 18.7889 2.77636 20.5231C2.76 20.5223 2.74295 20.5223 2.72727 20.5223C1.22318 20.5223 0 21.8373 0 23.4542C0 25.0711 1.22318 26.386 2.72727 26.386H12.2727C13.5068 26.386 14.6127 25.793 15.3634 24.8607C15.72 24.8966 16.0807 24.9201 16.4461 24.9201C22.1611 24.9201 26.9973 20.5223 27.945 14.463C27.9968 14.1346 27.8352 13.81 27.5523 13.6729ZM12.2727 24.9201H6.13636C5.38432 24.9201 4.77273 24.2626 4.77273 23.4542C4.77273 23.0488 4.46795 22.7212 4.09091 22.7212C3.71386 22.7212 3.40909 23.0488 3.40909 23.4542C3.40909 23.9907 3.55364 24.4869 3.78818 24.9201H2.72727C1.97523 24.9201 1.36364 24.2626 1.36364 23.4542C1.36364 22.6457 1.97523 21.9883 2.72727 21.9883C2.87114 21.9883 3.02182 22.019 3.18682 22.0821C3.39955 22.1634 3.63409 22.1275 3.8175 21.9846C4.00023 21.8417 4.10455 21.6108 4.09773 21.3689C4.09705 21.3594 4.09159 21.2656 4.09091 21.2553C4.09091 19.2345 5.62023 17.5905 7.5 17.5905C8.58954 17.5905 9.62182 18.1608 10.2627 19.1158C10.6711 19.7198 10.9091 20.4527 10.9091 21.2553C10.9091 21.6606 11.2139 21.9883 11.5909 21.9883C11.968 21.9883 12.2727 21.6606 12.2727 21.2553C12.2727 20.4894 12.1084 19.7659 11.8268 19.1121C11.9755 19.0836 12.1234 19.0564 12.2727 19.0564C13.7768 19.0564 15 20.3714 15 21.9883C15 23.6052 13.7768 24.9201 12.2727 24.9201ZM16.4461 23.4542C16.3398 23.4542 16.2361 23.4402 16.1305 23.4373C16.2791 22.9829 16.3636 22.4962 16.3636 21.9883C16.3636 19.5629 14.5289 17.5905 12.2727 17.5905C11.852 17.5905 11.4348 17.6631 11.0284 17.8075C10.1291 16.7447 8.84591 16.1246 7.5 16.1246C7.25454 16.1246 7.01523 16.1495 6.78 16.1877C6.37091 14.9959 6.13636 13.7139 6.13636 12.3712C6.13636 7.8349 8.6625 3.88135 12.4002 2.18236C11.2214 3.93559 10.573 6.05089 10.573 8.26881C10.573 14.0122 14.9195 18.6848 20.2623 18.6848C22.3248 18.6848 24.2932 17.9885 25.9241 16.7205C24.3436 20.7386 20.6666 23.4542 16.4461 23.4542Z" fill="#BEC8D4"/>
</svg>
