<svg width="22" height="28" viewBox="0 0 22 28" fill="none" xmlns="http://www.w3.org/2000/svg">
<path d="M21.125 4.42361V4.29861H21H15.5694V3.03472C15.5694 1.84069 14.6038 0.875 13.4097 0.875H8.58333C7.39596 0.875 6.43056 1.84096 6.43056 3.03472V4.29861H1H0.875V4.42361V5.44444V5.56944H1H2.35001L3.97917 25.6371C3.98194 26.8287 4.94657 27.7917 6.13889 27.7917H15.9306C17.1229 27.7917 18.0875 26.8287 18.0903 25.637L19.6987 5.56944H21H21.125V5.44444V4.42361ZM16.8198 25.5664L16.8194 25.5663V25.5764V25.6042V25.6319C16.8194 26.126 16.4165 26.5278 15.9306 26.5278H6.13889C5.64653 26.5278 5.25 26.1265 5.25 25.6319V25.6042V25.5764H5.25042L5.24958 25.5662L3.6148 5.56944H18.4271L16.8198 25.5664ZM7.69444 3.03472C7.69444 2.5407 8.09737 2.13889 8.58333 2.13889H13.4097C13.9021 2.13889 14.2986 2.54014 14.2986 3.03472V4.29861H7.69444V3.03472Z" fill="#556370" stroke="#556370" stroke-width="0.25"/>
<path d="M10.5142 7.54175H10.3892V7.66675V24.4028V24.5278H10.5142H11.4863H11.6113V24.4028V7.66675V7.54175H11.4863H10.5142Z" fill="#556370" stroke="#556370" stroke-width="0.25"/>
<path d="M15.5693 7.67229L15.5751 7.54175H15.4445H14.4306H14.311L14.3057 7.6612L13.5626 24.3973L13.5568 24.5278H13.6875H14.7014H14.821L14.8263 24.4084L15.5693 7.67229Z" fill="#556370" stroke="#556370" stroke-width="0.25"/>
<path d="M7.68749 7.66115L7.68214 7.54175H7.56262H6.55566H6.42499L6.43079 7.67229L7.17385 24.4084L7.17915 24.5279H7.29873H8.31262H8.44335L8.4375 24.3973L7.68749 7.66115Z" fill="#556370" stroke="#556370" stroke-width="0.25"/>
</svg>
