<svg width="27" height="27" viewBox="0 0 27 27" fill="none" xmlns="http://www.w3.org/2000/svg">
<path d="M0.894388 26.67C0.64065 26.6715 0.398347 26.5646 0.228508 26.376C0.05867 26.1875 -0.0225154 25.9354 0.00540092 25.6832L0.805489 18.4202C0.827912 18.2181 0.918902 18.0299 1.0633 17.8868L18.0252 0.933813C18.6192 0.3361 19.4271 0 20.2699 0C21.1126 0 21.9205 0.3361 22.5145 0.933813L25.786 4.16083C26.3837 4.7549 26.7198 5.56281 26.7198 6.40553C26.7198 7.24824 26.3837 8.05616 25.786 8.65022L8.78859 25.6032C8.6455 25.7476 8.45724 25.8386 8.2552 25.861L0.992176 26.67H0.894388ZM2.5479 18.918L1.89894 24.7764L7.75737 24.1275L24.4881 7.38786C25.0281 6.84083 25.0281 5.96133 24.4881 5.41431L21.2611 2.18728C20.714 1.64727 19.8346 1.64727 19.2875 2.18728L2.5479 18.918Z" fill="#556370"/>
<path d="M22.6927 11.3261C22.4595 11.3251 22.236 11.2325 22.0704 11.0683L15.6075 4.60532C15.2614 4.24937 15.2693 3.68021 15.6253 3.33407C15.9812 2.98794 16.5504 2.9959 16.8965 3.35185L23.3239 9.77923C23.6686 10.126 23.6686 10.686 23.3239 11.0327C23.1621 11.2122 22.9343 11.3181 22.6927 11.3261Z" fill="#556370"/>
<path d="M15.6006 9.81514L7.5293 17.8865L8.78651 19.1437L16.8578 11.0724L15.6006 9.81514Z" fill="#556370"/>
</svg>
