<svg width="24" height="25" viewBox="0 0 24 25" fill="none" xmlns="http://www.w3.org/2000/svg">
<path d="M17.0974 12.5255C18.1877 11.2659 18.8571 9.60725 18.8571 7.78592C18.8571 3.86503 15.7809 0.674805 12 0.674805C8.21914 0.674805 5.14286 3.86503 5.14286 7.78592C5.14286 11.7068 8.21914 14.897 12 14.897C13.3329 14.897 14.574 14.4944 15.6283 13.809C19.3569 15.2659 21.924 18.8046 22.2506 22.897H1.75029C1.97229 20.1424 3.21857 17.5735 5.24571 15.7406C5.60314 15.4179 5.64 14.857 5.32886 14.4864C5.01857 14.1166 4.47686 14.0775 4.11943 14.4001C1.50086 16.7664 0 20.1868 0 23.7859C0 24.2775 0.384 24.6748 0.857143 24.6748H23.1429C23.6169 24.6748 24 24.2775 24 23.7859C24 18.9095 21.2743 14.5548 17.0974 12.5255ZM6.85714 7.78592C6.85714 4.84458 9.16371 2.45258 12 2.45258C14.8363 2.45258 17.1429 4.84458 17.1429 7.78592C17.1429 10.7272 14.8363 13.1192 12 13.1192C9.16371 13.1192 6.85714 10.7272 6.85714 7.78592Z" fill="#BEC8D4"/>
</svg>
