<svg width="30" height="30" viewBox="0 0 30 30" fill="none" xmlns="http://www.w3.org/2000/svg">
<path d="M29.6819 28.12L22.7223 21.1601H22.6473C27.1046 15.9043 26.6221 8.06784 21.5537 3.39866C16.4853 -1.27053 8.63603 -1.10959 3.76325 3.76342C-1.10954 8.63643 -1.27047 16.4861 3.3985 21.5547C8.06746 26.6234 15.9035 27.1059 21.1591 22.6484C21.1591 22.6484 21.1591 22.7019 21.1591 22.7234L28.1187 29.6833C28.3197 29.886 28.5934 30 28.8789 30C29.1643 30 29.438 29.886 29.6391 29.6833C29.8609 29.4868 29.9915 29.2072 29.9996 28.9109C30.0077 28.6147 29.8927 28.3283 29.6819 28.12ZM12.8611 23.5264C6.94775 23.5264 2.15403 18.7325 2.15403 12.8189C2.15403 6.90524 6.94775 2.1113 12.8611 2.1113C18.7744 2.1113 23.5682 6.90524 23.5682 12.8189C23.5682 15.6587 22.4401 18.3822 20.4321 20.3903C18.4242 22.3983 15.7008 23.5264 12.8611 23.5264Z" fill="black"/>
</svg>
