<svg width="19" height="23" viewBox="0 0 19 23" fill="none" xmlns="http://www.w3.org/2000/svg">
<path d="M15.2678 6.98706C16.7767 6.98706 17.9999 5.64681 17.9999 3.99353C17.9999 2.34025 16.7767 1 15.2678 1C13.7589 1 12.5356 2.34025 12.5356 3.99353C12.5356 5.64681 13.7589 6.98706 15.2678 6.98706Z" stroke="#00BCDD" stroke-width="2" stroke-linecap="round" stroke-linejoin="round"/>
<path d="M3.73212 14.3045C5.24102 14.3045 6.46423 12.9642 6.46423 11.3109C6.46423 9.65763 5.24102 8.31738 3.73212 8.31738C2.22321 8.31738 1 9.65763 1 11.3109C1 12.9642 2.22321 14.3045 3.73212 14.3045Z" stroke="#00BCDD" stroke-width="2" stroke-linecap="round" stroke-linejoin="round"/>
<path d="M15.2678 21.6221C16.7768 21.6221 18 20.2818 18 18.6285C18 16.9753 16.7768 15.635 15.2678 15.635C13.7589 15.635 12.5356 16.9753 12.5356 18.6285C12.5356 20.2818 13.7589 21.6221 15.2678 21.6221Z" stroke="#00BCDD" stroke-width="2" stroke-linecap="round" stroke-linejoin="round"/>
<path d="M6.46436 12.9741L12.5358 16.9655" stroke="#00BCDD" stroke-width="2" stroke-linecap="round" stroke-linejoin="round"/>
<path d="M12.5358 5.65649L6.46436 9.64788" stroke="#00BCDD" stroke-width="2" stroke-linecap="round" stroke-linejoin="round"/>
</svg>
