<svg width="30" height="31" viewBox="0 0 30 31" fill="none" xmlns="http://www.w3.org/2000/svg">
<path d="M15 30.6636C6.72857 30.6636 0 23.9333 0 15.6625C0 12.1913 1.215 8.80585 3.42214 6.12961C3.79714 5.6775 4.47429 5.60679 4.93072 5.98605C5.38714 6.36317 5.45357 7.03598 5.07643 7.49451C3.18428 9.78721 2.14286 12.6863 2.14286 15.6625C2.14286 22.7527 7.90929 28.5209 15 28.5209C22.0907 28.5209 27.8571 22.7527 27.8571 15.6625C27.8571 8.5723 22.0907 2.80413 15 2.80413C12.5529 2.80413 10.1721 3.49623 8.11286 4.80756C7.61357 5.12468 6.95143 4.9747 6.63429 4.47973C6.31714 3.98048 6.46286 3.31838 6.96214 3.00126C9.36643 1.47137 12.1457 0.663574 15 0.663574C23.2714 0.663574 30 7.39381 30 15.6646C30 23.9355 23.2714 30.6636 15 30.6636Z" fill="#BEC8D4"/>
<path d="M15.0002 24.2335C18.0045 24.2335 20.3573 21.8808 20.3573 18.8767C20.3573 16.4447 18.7052 14.6727 15.448 13.6099L15.2059 13.5306C13.9845 13.1321 12.8573 12.5964 12.8573 11.3772C12.8573 10.1152 13.738 9.2345 15.0002 9.2345C16.5087 9.2345 17.5159 10.0444 17.5245 10.053C17.9809 10.4344 18.6537 10.3744 19.0352 9.92446C19.4166 9.4702 19.3566 8.79739 18.9045 8.41599C18.8402 8.36242 17.3059 7.0918 15.0002 7.0918C12.5552 7.0918 10.7145 8.93452 10.7145 11.3772C10.7145 14.3213 13.5945 15.2619 14.5395 15.5662L14.7816 15.6455C17.0916 16.3997 18.2145 17.4582 18.2145 18.8767C18.2145 20.7087 16.8323 22.0907 15.0002 22.0907C13.0116 22.0907 11.8737 20.7794 11.5716 20.3766C11.2159 19.9009 10.543 19.8088 10.0716 20.1602C9.59589 20.5159 9.49946 21.1865 9.85517 21.6601C10.3095 22.2664 12.0173 24.2335 15.0002 24.2335Z" fill="#BEC8D4"/>
<path d="M15.0001 26.3759C15.5916 26.3759 16.0716 25.896 16.0716 25.3046V24.2332C16.0716 23.6418 15.5916 23.1619 15.0001 23.1619C14.4087 23.1619 13.9287 23.6418 13.9287 24.2332V25.3046C13.9287 25.896 14.4087 26.3759 15.0001 26.3759Z" fill="#BEC8D4"/>
<path d="M15.0001 8.16301C15.5916 8.16301 16.0716 7.68305 16.0716 7.09167V6.02032C16.0716 5.42894 15.5916 4.94897 15.0001 4.94897C14.4087 4.94897 13.9287 5.42894 13.9287 6.02032V7.09167C13.9287 7.68305 14.4087 8.16301 15.0001 8.16301Z" fill="#BEC8D4"/>
</svg>
